# xmcd CD database file
#
# Track frame offsets:
#	150
#	18222
#	34873
#	53425
#	77147
#	94594
#	112018
#	127482
#	149558
#	172782
#	198701
#	220209
#
# Disc length: 3142 seconds
#
# Revision: 0
# Processed by: cddbd v1.5.1PL0 Copyright (c) Steve Scherf et al.
# Submitted via: CDex 1.51
#
DISCID=a90c440c
DTITLE=Chubby Carrier and The Bayou Swamp Band - Ain't No Party Like a Chubby Party
DYEAR=2003
DGENRE=Zydeco
TTITLE0=Ain't No Party Like a Chubby Party
TTITLE1=Tell Me What You're Doing to Me
TTITLE2=Bear With Me
TTITLE3=Zydeco Mojo
TTITLE4=Down the Bayou at the Mardi Gras
TTITLE5=Show it to me
TTITLE6=My Kind of Girl
TTITLE7=Blue Runner
TTITLE8=Family Jam
TTITLE9=Hard To Believe
TTITLE10=Then I Met Trouble
TTITLE11=Can't Get Enough of That Zydeco Stuff
EXTD=YEAR: 2003
EXTT0=
EXTT1=
EXTT2=
EXTT3=
EXTT4=
EXTT5=
EXTT6=
EXTT7=
EXTT8=
EXTT9=
EXTT10=
EXTT11=
PLAYORDER=
